<svg xmlns="http://www.w3.org/2000/svg"
    viewBox="0 0 500 500">
    <g id="freepik--background-complete--inject-2">
        <path
            d="M453,84.67c.65-6.15-5.88-11.21-10.79-11.75-2.33-.25-4.75.22-7-.81-4.8-2.22-6.72-10.48-11.41-13.08-3.49-2-7.52-.23-10.91,2s-6.75,5.14-10.54,5.46c-3.31.28-6.89-1.34-9.82.81-2.16,1.58-3.28,4.89-5.26,6.84a10.23,10.23,0,0,1-6.87,2.48,15,15,0,0,0-7.09,1.54,8,8,0,0,0-3.55,7.58Z"
            style="fill:#f5f5f5">
        </path>
        <path
            d="M111,239.19c.65-6.15-5.88-11.21-10.79-11.76-2.33-.24-4.75.23-7-.8-4.8-2.22-6.72-10.49-11.41-13.08-3.49-2-7.52-.23-10.91,2s-6.75,5.14-10.54,5.46c-3.31.28-6.89-1.35-9.82.8-2.16,1.59-3.28,4.9-5.26,6.84a10.25,10.25,0,0,1-6.88,2.49,15.13,15.13,0,0,0-7.08,1.53,8,8,0,0,0-3.55,7.59Z"
            style="fill:#f5f5f5">
        </path>
        <path
            d="M188,110.85c.56-4.79-5.12-8.73-9.39-9.15-2-.19-4.14.17-6.1-.63-4.18-1.73-5.85-8.16-9.92-10.18-3-1.54-6.55-.18-9.5,1.6s-5.87,4-9.17,4.25c-2.88.21-6-1-8.54.62-1.88,1.24-2.86,3.81-4.58,5.33a9.59,9.59,0,0,1-6,1.93,14.54,14.54,0,0,0-6.17,1.19,6,6,0,0,0-3.08,5.91Z"
            style="fill:#f5f5f5">
        </path>
        <path
            d="M435.33,297.5c.56-4.78-5.11-8.72-9.39-9.15-2-.19-4.13.18-6.1-.62-4.17-1.73-5.85-8.16-9.92-10.18-3-1.55-6.55-.18-9.5,1.6s-5.87,4-9.17,4.24c-2.88.22-6-1-8.54.63-1.88,1.24-2.86,3.81-4.58,5.32a9.6,9.6,0,0,1-6,1.94,14.31,14.31,0,0,0-6.16,1.19,6,6,0,0,0-3.09,5.91Z"
            style="fill:#f5f5f5">
        </path>
        <g id="freepik--freepik--Trees--inject-216--inject-2">
            <path
                d="M443,292.63l-54.84,30.72-5.46-45.23,27.8-27.65,13.78-31,33-32.44h-1.72L422.22,218.6,409,249.32l-29.29,27L357,246.75l11.77-62.56,39.05-41.89,34.47-6.42,37,26.8-34.74-27.93-35.9,3.64,2-9.78-1.16-41.9-1.14,2,.57,39.08-4.6,13.14-36.6,38.65-16.36-46.35,7.7-76.53h-1.39l-11.48,78.19,11.48,46.91-8.7,66.8,26.4,36,.42,13.59-26.11-29.51-65.32-18.49-12.54-20.92-.83,2.5,12.24,23.11,66.35,20.85,26.84,39.36.41,13.51L356.9,380l-28.72,89.91,39.81.08,7.35-85.33C384.18,366,396,325.84,396,325.84L449.05,295H483Z"
                style="fill:#e0e0e0">
            </path>
            <path
                d="M396.81,196.77c-.12.21,4,2.8,9.19,5.81s9.5,5.3,9.62,5.1-4-2.8-9.19-5.81A74.92,74.92,0,0,0,396.81,196.77Z"
                style="fill:#e0e0e0">
            </path>
            <path
                d="M318.76,174.23a11.34,11.34,0,0,0,1.09,2c.76,1.25,1.87,3.08,3.36,5.27A147.31,147.31,0,0,0,336,197.81c2.71,3,5.45,5.75,7.88,8.26,1.22,1.26,2.42,2.42,3.46,3.57s2,2.26,2.78,3.3c1.62,2.06,2.78,3.83,3.64,5.05a16.32,16.32,0,0,0,1.31,1.89,9.84,9.84,0,0,0-1-2,56.49,56.49,0,0,0-3.45-5.25c-.79-1.06-1.69-2.2-2.71-3.39s-2.21-2.35-3.42-3.63c-2.42-2.56-5.13-5.3-7.82-8.29a182.61,182.61,0,0,1-12.94-16.07c-1.54-2.13-2.78-3.9-3.59-5.12A12.75,12.75,0,0,0,318.76,174.23Z"
                style="fill:#e0e0e0">
            </path>
            <path
                d="M374.76,384.5a3.53,3.53,0,0,0,0-.46v-1.35a32.53,32.53,0,0,0-.66-4.81c-.4-2-1-4.35-1.53-7a76.29,76.29,0,0,1-1.15-8.66,80,80,0,0,1,.4-15.85c.27-2,.53-3.65.74-4.77.08-.48.15-.91.22-1.35s.07-.45,0-.46a3.22,3.22,0,0,0-.14.44c-.09.38-.21.8-.32,1.27-.26,1.12-.59,2.7-.9,4.76a71.63,71.63,0,0,0,.65,24.65c.53,2.7,1.2,5,1.63,7a37.87,37.87,0,0,1,.82,4.74A10.78,10.78,0,0,1,374.76,384.5Z"
                style="fill:#f5f5f5">
            </path>
            <path
                d="M359.87,407.57a9.35,9.35,0,0,0-.82,1.35,11.91,11.91,0,0,0-1.29,7.31,5.94,5.94,0,0,0,1.67,3.4,3.16,3.16,0,0,0,1.94,1,2.54,2.54,0,0,0,2.11-1,5.89,5.89,0,0,0,1-2.2c.19-.79.39-1.59.57-2.41a68.86,68.86,0,0,0,1.39-11,19.14,19.14,0,0,0-.5-6.17,6.26,6.26,0,0,0-1.64-2.89,3.65,3.65,0,0,0-1.52-.89,2.53,2.53,0,0,0-1.83.2,5.43,5.43,0,0,0-1.39,1.12,12.3,12.3,0,0,0-1.16,1.36,19.92,19.92,0,0,0-2,2.9,24.22,24.22,0,0,0-2.53,6.76,31.58,31.58,0,0,0,.8,15,51.74,51.74,0,0,0,2.61,7.21,11.27,11.27,0,0,0,1.9,3.31,3.71,3.71,0,0,0,3.7,1,9.16,9.16,0,0,0,5.22-5,28.34,28.34,0,0,0,2.44-6.46,44.84,44.84,0,0,0,1.12-12.65,92.29,92.29,0,0,0-1.19-11c-1.13-6.66-2.5-12-3.45-15.63-.47-1.77-.85-3.18-1.11-4.21s-.43-1.45-.43-1.45.1.51.33,1.48.59,2.45,1,4.23c.88,3.66,2.2,9,3.28,15.64a95.65,95.65,0,0,1,1.13,10.94,44.77,44.77,0,0,1-1.17,12.53,27.7,27.7,0,0,1-2.41,6.35,10.94,10.94,0,0,1-2,2.88,6.81,6.81,0,0,1-2.95,1.9,3.25,3.25,0,0,1-3.2-.92,10.8,10.8,0,0,1-1.79-3.17,51.88,51.88,0,0,1-2.6-7.16,31,31,0,0,1-.79-14.76,23.33,23.33,0,0,1,2.47-6.62,19.68,19.68,0,0,1,1.95-2.85,9.86,9.86,0,0,1,2.39-2.3,2.39,2.39,0,0,1,2.78.61,5.76,5.76,0,0,1,1.53,2.7,18.57,18.57,0,0,1,.51,6A68,68,0,0,1,364.58,415a12.81,12.81,0,0,1-1.39,4.5,2.19,2.19,0,0,1-1.82.86,2.94,2.94,0,0,1-1.78-.88,7.59,7.59,0,0,1-1.68-6.33,12.48,12.48,0,0,1,1.2-4.14c.22-.45.41-.77.54-1A2.52,2.52,0,0,0,359.87,407.57Z"
                style="fill:#f5f5f5">
            </path>
            <path
                d="M346.54,423.71a3.53,3.53,0,0,0,0,.46,8.41,8.41,0,0,1-.08,1.35c0,1.15-.08,2.8,0,4.85a37.4,37.4,0,0,0,3.6,15.5c2.95,5.69,7.7,9.34,11,11.78.84.63,1.6,1.17,2.3,1.63a4.88,4.88,0,0,0,2,.77,1.68,1.68,0,0,0,1.32-.33.75.75,0,0,0,.27-.39,1.59,1.59,0,0,1-.33.31,1.57,1.57,0,0,1-1.23.22,4.67,4.67,0,0,1-1.9-.81l-2.24-1.67c-3.22-2.51-7.87-6.16-10.74-11.73a39,39,0,0,1-3.77-15.31c-.12-2-.14-3.67-.15-4.81A11,11,0,0,0,346.54,423.71Z"
                style="fill:#f5f5f5">
            </path>
            <path
                d="M367.81,273.41a19.25,19.25,0,0,1,3.5,1.56,19,19,0,0,1,6.95,7.47,34,34,0,0,1,3.35,14.68c.11,2.85.12,5.86.12,9a68.45,68.45,0,0,1-.58,9.6c-.47,3.27-1.22,6.42-1.71,9.46a48.58,48.58,0,0,0-.61,9,128.84,128.84,0,0,0,1.46,15.19,49.3,49.3,0,0,0,2.19,10,20,20,0,0,0,1.59,3.45s-.11-.31-.39-.89a21.25,21.25,0,0,1-1-2.61,52.16,52.16,0,0,1-2.05-10,139.8,139.8,0,0,1-1.39-15.15,51.21,51.21,0,0,1,.63-8.92c.49-3.08,1.25-6.23,1.72-9.46a67.82,67.82,0,0,0,.59-9.66c0-3.12,0-6.14-.17-9-.24-5.73-1.31-10.94-3.49-14.86a18.6,18.6,0,0,0-7.16-7.48,13.24,13.24,0,0,0-2.62-1.14Z"
                style="fill:#f5f5f5">
            </path>
            <path
                d="M358,257.88a7.84,7.84,0,0,0,1.3,1.26,18,18,0,0,0,7.88,3.66,5.46,5.46,0,0,0,1.8.22q-2.93-.9-5.75-2.08A58.07,58.07,0,0,1,358,257.88Z"
                style="fill:#f5f5f5">
            </path>
            <path
                d="M354.37,220.56a12.23,12.23,0,0,0-.21,3,47.28,47.28,0,0,0,.57,7.13,46.15,46.15,0,0,0,1.69,7,14.47,14.47,0,0,0,1.12,2.77,22,22,0,0,0-.77-2.86,62.33,62.33,0,0,1-2.25-14A28.94,28.94,0,0,0,354.37,220.56Z"
                style="fill:#f5f5f5">
            </path>
            <path
                d="M358.47,205.87a7.12,7.12,0,0,0,.07.92c0,.59.14,1.48.15,2.62a30.41,30.41,0,0,1-1.39,9.46h.35a10,10,0,0,1-.68-5.5c.12-2,.25-4.19.43-6.45a59.57,59.57,0,0,1,2.68-14.36,8.67,8.67,0,0,1,2-3.48c.43-.47,1.07-.66,1.39-.2a2.91,2.91,0,0,1,.22,1.77q-.27,3.91-.5,7.51l-.82,12.74a68,68,0,0,1-.82,8.54c-.19,1-.39,1.75-.54,2.27a6.94,6.94,0,0,0-.22.78,6.41,6.41,0,0,0,.32-.76,22.15,22.15,0,0,0,.64-2.25,60.15,60.15,0,0,0,1-8.56c.27-3.66.57-8,.92-12.73.17-2.39.35-4.9.53-7.51a3.25,3.25,0,0,0-.29-2.08,1.14,1.14,0,0,0-1.16-.46,2.06,2.06,0,0,0-1,.59,9,9,0,0,0-2.08,3.66A59.65,59.65,0,0,0,357,206.88q-.24,3.41-.39,6.47a10.2,10.2,0,0,0,.78,5.69l.22.38.13-.42a28.64,28.64,0,0,0,1.22-9.6,16.09,16.09,0,0,0-.25-2.64A4.43,4.43,0,0,0,358.47,205.87Z"
                style="fill:#f5f5f5">
            </path>
            <path
                d="M454.65,269.24a29.1,29.1,0,0,0-2,3.51c-1.19,2.2-2.77,5.27-4.55,8.68s-3.28,6.51-4.37,8.77a21.17,21.17,0,0,0-1.6,3.73,18.09,18.09,0,0,0,2.14-3.48c1.21-2.18,2.78-5.25,4.59-8.66C452.32,275,455,269.36,454.65,269.24Z"
                style="fill:#e0e0e0">
            </path>
            <path
                d="M446.84,284.21c.16.19,3.3-2,7.37-4.32s7.5-4.06,7.41-4.26a29.81,29.81,0,0,0-7.84,3.54C449.65,281.55,446.7,284,446.84,284.21Z"
                style="fill:#e0e0e0">
            </path>
            <path
                d="M466.77,294.71c-.15.19,3.3,3,7.35,6.66s7.22,6.76,7.4,6.64a60.6,60.6,0,0,0-14.75-13.3Z"
                style="fill:#e0e0e0">
            </path>
            <path
                d="M473.68,300.41c-.07.22,2.29,1,5.28,1.82s5.49,1.17,5.56.86a27.48,27.48,0,0,0-5.31-1.66A20,20,0,0,0,473.68,300.41Z"
                style="fill:#e0e0e0">
            </path>
            <path
                d="M401.81,176.93a8.3,8.3,0,0,0,.64,1.77l2,4.69c1.74,3.94,4.17,9.37,6.95,15.33l2,4.35c.32.7.65,1.35,1,2.07a11.94,11.94,0,0,1,.72,2,9,9,0,0,0,2.39,3.43l2.45,2.58,3.58,3.7a8.51,8.51,0,0,0,1.39,1.29,6.72,6.72,0,0,0-1.15-1.5l-3.38-3.88-2.36-2.71a8.32,8.32,0,0,1-2.17-3.2,12.58,12.58,0,0,0-.72-2.09l-1-2.08c-.65-1.36-1.32-2.87-2-4.37-2.78-6-5.31-11.37-7.2-15.24-.89-1.81-1.64-3.36-2.26-4.59A7.67,7.67,0,0,0,401.81,176.93Z"
                style="fill:#e0e0e0">
            </path>
            <path
                d="M395.27,181.26c-.14.19,2.71,2.48,6.38,5.15s6.77,4.67,7,4.48a81.41,81.41,0,0,0-13.29-9.63Z"
                style="fill:#e0e0e0">
            </path>
            <path
                d="M410.35,195.58c.23,0,.39-5.08.65-11.34s.5-11.33.27-11.35a12.32,12.32,0,0,0-.55,3.3c-.22,2.05-.44,4.88-.57,8s-.14,6-.08,8.11A12.69,12.69,0,0,0,410.35,195.58Z"
                style="fill:#e0e0e0">
            </path>
            <path
                d="M446.41,196.45a5.37,5.37,0,0,1,1-.14,11,11,0,0,1,2.69.27c2.39.54,5.68.07,9.21-.24s6.78-.7,9.12-1a18.33,18.33,0,0,0,3.74-.66,16.74,16.74,0,0,0-3.81.08c-2.34.15-5.56.4-9.13.76s-6.76.86-9,.48a8.64,8.64,0,0,0-2.78,0C446.68,196.15,446.38,196.41,446.41,196.45Z"
                style="fill:#e0e0e0">
            </path>
            <path
                d="M459.53,196.06s.07,0,0-.07-.15-.12-.21,0,.21.27.35.42l1.39.94c1.22.79,2.95,1.8,4.88,2.9,3.86,2.17,7.07,3.77,7.18,3.56s-2.91-2.12-6.76-4.28c-1.92-1.08-3.69-2-5-2.7A12.33,12.33,0,0,0,459.53,196.06Z"
                style="fill:#e0e0e0">
            </path>
            <path
                d="M443.05,136a44.09,44.09,0,0,0,4.85-3.25c3-2.08,7-4.93,11.6-8s8.76-5.75,11.79-7.7a42,42,0,0,0,4.85-3.27,6.4,6.4,0,0,0-1.39.68c-.9.47-2.17,1.19-3.74,2.09-3.13,1.82-7.38,4.46-11.95,7.53s-8.62,6-11.48,8.2c-1.39,1.1-2.57,2-3.35,2.7S443,135.92,443.05,136Z"
                style="fill:#e0e0e0">
            </path>
            <path
                d="M468.22,118.23a14.09,14.09,0,0,0,3.71-9,30.12,30.12,0,0,0-1.84,4.48C469.08,116.2,468,118.09,468.22,118.23Z"
                style="fill:#e0e0e0">
            </path>
            <path
                d="M454.68,127.54c0,.23,5.56-.8,12.19-2.29s12-2.86,12-3.09a94.58,94.58,0,0,0-12.17,2.3A96.85,96.85,0,0,0,454.68,127.54Z"
                style="fill:#e0e0e0">
            </path>
            <path
                d="M409.1,132.86a10.65,10.65,0,0,0,1.57-1.35c1-.89,2.36-2.21,4.06-3.88,3.37-3.31,7.95-8,12.85-13.25s9.2-10.19,12.26-13.79c1.51-1.81,2.78-3.28,3.54-4.31a9.27,9.27,0,0,0,1.21-1.66,11.19,11.19,0,0,0-1.46,1.46l-3.75,4.13c-3.17,3.5-7.53,8.34-12.44,13.61s-9.39,10-12.66,13.41l-3.85,4A10,10,0,0,0,409.1,132.86Z"
                style="fill:#e0e0e0">
            </path>
            <path
                d="M430.25,110.48a15.7,15.7,0,0,0,3.4-1.23c2.06-.86,4.88-2.09,8-3.5s5.86-2.7,7.86-3.71a14.63,14.63,0,0,0,3.14-1.76,15.89,15.89,0,0,0-3.4,1.23c-2.06.85-4.86,2.08-8,3.5s-5.87,2.7-7.86,3.7A16.52,16.52,0,0,0,430.25,110.48Z"
                style="fill:#e0e0e0">
            </path>
            <path
                d="M431,100.54a29.65,29.65,0,0,0-2.78,7.13c-1.25,4.06-1.9,7.42-1.68,7.48s1.25-3.22,2.5-7.25S431.21,100.6,431,100.54Z"
                style="fill:#e0e0e0">
            </path>
            <path
                d="M352.59,101.51a9.44,9.44,0,0,0-.81-1.88c-.57-1.17-1.39-2.86-2.51-4.95-2.18-4.16-5.3-9.85-8.91-16S333.31,67,330.74,63c-1.28-2-2.33-3.56-3.08-4.64a10.31,10.31,0,0,0-1.24-1.63,8.82,8.82,0,0,0,1,1.79c.75,1.27,1.71,2.88,2.78,4.77,2.43,4.06,5.78,9.57,9.39,15.76s6.8,11.81,9.11,15.89q1.63,2.91,2.78,4.83A9.29,9.29,0,0,0,352.59,101.51Z"
                style="fill:#e0e0e0">
            </path>
            <path
                d="M337.38,75a14.81,14.81,0,0,0-.13-3.52c-.19-2.18-.5-5.17-.91-8.46s-.82-6.27-1.17-8.42a14.59,14.59,0,0,0-.72-3.46,15.36,15.36,0,0,0,.13,3.52c.19,2.18.51,5.17.91,8.46s.82,6.28,1.16,8.42A14.61,14.61,0,0,0,337.38,75Z"
                style="fill:#e0e0e0">
            </path>
            <path
                d="M412.82,68.18c-.23,0-1,5-2,11.27s-1.95,11.26-1.71,11.32a13.2,13.2,0,0,0,1-3.23c.49-2,1.06-4.83,1.57-8s.88-6,1.07-8A11.9,11.9,0,0,0,412.82,68.18Z"
                style="fill:#e0e0e0">
            </path>
            <path
                d="M411,80.62c.17.16,2.25-1.53,4.5-3.94s3.81-4.55,3.63-4.7a26.92,26.92,0,0,0-4.25,4.15C412.6,78.51,410.79,80.44,411,80.62Z"
                style="fill:#e0e0e0">
            </path>
            <path
                d="M462.23,149.51c0,.23,5.15-.48,11.41-1.58a83.17,83.17,0,0,0,11.26-2.38c0-.23-5.16.48-11.41,1.57S462.19,149.28,462.23,149.51Z"
                style="fill:#e0e0e0">
            </path>
            <path
                d="M310.45,199.49a10.08,10.08,0,0,0,3.61.61,38.43,38.43,0,0,0,8.82-.8l8.58-1.77a23,23,0,0,0,3.58-.74,12.53,12.53,0,0,0-3.67.16c-2.24.27-5.3.89-8.66,1.54a53.23,53.23,0,0,1-8.63,1A34.14,34.14,0,0,0,310.45,199.49Z"
                style="fill:#e0e0e0">
            </path>
            <path
                d="M312.8,205.16c.19.13,1.31-1.13,2.47-2.81s2-3.13,1.75-3.27-1.29,1.14-2.46,2.81A8.75,8.75,0,0,0,312.8,205.16Z"
                style="fill:#e0e0e0">
            </path>
        </g>
        <g id="freepik--freepik-trees-inject-216--inject-2">
            <path
                d="M19.06,256.15H52.13l51.79,28.43s11.51,37.05,20.14,54.25l6.48,102.94-17,27,58.19-.09-4.25-58.56-24.29-72-20.72-51.08.41-12.47,26.19-36.32,64.74-19.25,11.94-21.33-.81-2.31-12.23,19.31L149,231.83l-25.48,27.24.41-12.55,25.76-33.25-8.49-61.66,11.2-43.29-11.2-72.17h-1.35l7.51,70.64-16,42.78L95.69,113.9,91.2,101.77l.56-36.07-1.11-1.81-1.13,38.67,2,9-35-3.36L22.56,134,58.7,109.27l33.63,5.92,38.1,38.67,11.49,57.73-22.13,27.32L91.2,214,78.32,185.61,45.77,156.49H44.09l32.22,29.93L89.76,215l27.13,25.52-5.33,41.75L58.05,253.94Z"
                style="fill:#e0e0e0">
            </path>
            <path
                d="M93.72,170.17c-5.07,2.78-9.07,5.18-9,5.37s4.31-1.92,9.38-4.71,9.09-5.17,9-5.36A74.13,74.13,0,0,0,93.72,170.17Z"
                style="fill:#e0e0e0">
            </path>
            <path
                d="M177.94,146.37c-.79,1.13-2,2.76-3.5,4.73a170.58,170.58,0,0,1-12.63,14.83c-2.63,2.76-5.27,5.29-7.63,7.65-1.18,1.18-2.35,2.26-3.34,3.35s-1.87,2.15-2.64,3.13a51.12,51.12,0,0,0-3.37,4.84,8.85,8.85,0,0,0-1,1.9,14.52,14.52,0,0,0,1.28-1.75c.84-1.12,2-2.75,3.55-4.66.8-1,1.69-2,2.71-3s2.18-2.13,3.38-3.29c2.37-2.32,5-4.84,7.69-7.62a140.39,140.39,0,0,0,12.49-15c1.45-2,2.53-3.7,3.28-4.86a10.82,10.82,0,0,0,1.06-1.87A11.31,11.31,0,0,0,177.94,146.37Z"
                style="fill:#e0e0e0">
            </path>
            <path
                d="M124.86,337a34.4,34.4,0,0,1,.8-4.38c.42-1.83,1.07-3.95,1.59-6.45a62.6,62.6,0,0,0,.63-22.75c-.29-1.89-.62-3.35-.88-4.39-.11-.43-.22-.82-.31-1.17a2,2,0,0,0-.14-.41c-.06,0-.06,0,0,.42s.14.81.22,1.25c.2,1,.46,2.53.72,4.4a69.52,69.52,0,0,1,.39,14.63,67.52,67.52,0,0,1-1.12,8c-.49,2.43-1.1,4.6-1.49,6.45a26.54,26.54,0,0,0-.64,4.44v1.24a1.55,1.55,0,0,0,0,.43A9.54,9.54,0,0,1,124.86,337Z"
                style="fill:#f5f5f5">
            </path>
            <path
                d="M139.37,360.46c.12.2.31.5.53.91a11,11,0,0,1,1.16,3.81,6.73,6.73,0,0,1-1.64,5.85,2.92,2.92,0,0,1-1.73.81,2.18,2.18,0,0,1-1.78-.79,11.3,11.3,0,0,1-1.35-4.16,59,59,0,0,1-1.36-10.06,16.11,16.11,0,0,1,.5-5.57,5.22,5.22,0,0,1,1.49-2.49,2.42,2.42,0,0,1,2.71-.56,9.13,9.13,0,0,1,2.34,2.12,18.11,18.11,0,0,1,1.9,2.63,20.72,20.72,0,0,1,2.41,6.11,27.26,27.26,0,0,1-.77,13.62,46.44,46.44,0,0,1-2.54,6.61,9.58,9.58,0,0,1-1.75,2.92,3.29,3.29,0,0,1-3.12.85,6.62,6.62,0,0,1-2.87-1.75,10.21,10.21,0,0,1-1.94-2.65,24.76,24.76,0,0,1-2.35-5.87,39.15,39.15,0,0,1-1.14-11.56,83.82,83.82,0,0,1,1.1-10.1c1.06-6.15,2.35-11.05,3.2-14.43.44-1.65.77-3,1-3.91s.32-1.37.32-1.37-.16.4-.42,1.35-.62,2.24-1.08,3.88c-.93,3.38-2.27,8.28-3.37,14.43a80.5,80.5,0,0,0-1.16,10.14,38.89,38.89,0,0,0,1.09,11.67,25.32,25.32,0,0,0,2.38,6,8.74,8.74,0,0,0,5.1,4.62,3.73,3.73,0,0,0,3.6-1,10.13,10.13,0,0,0,1.86-3,46.36,46.36,0,0,0,2.55-6.66A27.55,27.55,0,0,0,145,359a21.37,21.37,0,0,0-2.46-6.23,17.7,17.7,0,0,0-2-2.68,9.82,9.82,0,0,0-1.12-1.25,5.58,5.58,0,0,0-1.36-1,2.57,2.57,0,0,0-1.79-.18,3.54,3.54,0,0,0-1.48.82,5.71,5.71,0,0,0-1.6,2.67,16.3,16.3,0,0,0-.48,5.69,59.59,59.59,0,0,0,1.35,10.12c.18.77.37,1.5.56,2.22a5.36,5.36,0,0,0,.95,2,2.54,2.54,0,0,0,2.06.9,3.24,3.24,0,0,0,1.9-.91,5.38,5.38,0,0,0,1.62-3.14,10.48,10.48,0,0,0-1.26-6.74,7.16,7.16,0,0,0-.8-1.25A2.58,2.58,0,0,0,139.37,360.46Z"
                style="fill:#f5f5f5">
            </path>
            <path
                d="M152.1,376.6c0,1,0,2.57-.15,4.44a34.46,34.46,0,0,1-3.67,14.13c-2.81,5.14-7.34,8.5-10.48,10.82l-2.19,1.54a4.7,4.7,0,0,1-1.85.75,1.61,1.61,0,0,1-1.2-.2,1.66,1.66,0,0,1-.32-.29.7.7,0,0,0,.25.36,1.7,1.7,0,0,0,1.29.3,4.76,4.76,0,0,0,2-.71c.68-.42,1.43-.92,2.24-1.5,3.21-2.25,7.85-5.62,10.73-10.87a33.09,33.09,0,0,0,3.51-14.31c.08-1.89,0-3.42,0-4.48a7.05,7.05,0,0,1-.08-1.24,3.08,3.08,0,0,0,0-.43A9.52,9.52,0,0,0,152.1,376.6Z"
                style="fill:#f5f5f5">
            </path>
            <path
                d="M130.5,236.39a13.67,13.67,0,0,0-2.56,1.06,17.71,17.71,0,0,0-7,6.9c-2.13,3.61-3.17,8.43-3.4,13.72-.16,2.65-.16,5.44-.16,8.32a57.94,57.94,0,0,0,.57,8.92c.46,3,1.2,5.88,1.68,8.73a44.47,44.47,0,0,1,.61,8.23,121.58,121.58,0,0,1-1.36,14,46.3,46.3,0,0,1-2,9.27,20.32,20.32,0,0,1-1,2.4c-.27.54-.38.83-.38.83a17,17,0,0,0,1.55-3.18,43.74,43.74,0,0,0,2.14-9.27,113.84,113.84,0,0,0,1.43-14,43,43,0,0,0-.6-8.32c-.48-2.81-1.21-5.71-1.67-8.73a59.75,59.75,0,0,1-.57-8.86c0-2.88,0-5.66.12-8.29a30,30,0,0,1,3.27-13.55,18,18,0,0,1,6.78-6.89,19,19,0,0,1,3.42-1.44Z"
                style="fill:#f5f5f5">
            </path>
            <path
                d="M135.88,224.69q-2.74,1.09-5.61,1.92a5.77,5.77,0,0,0,1.76-.2,19.58,19.58,0,0,0,4.07-1.25,18.7,18.7,0,0,0,3.62-2.13,7.34,7.34,0,0,0,1.26-1.16A57.19,57.19,0,0,1,135.88,224.69Z"
                style="fill:#f5f5f5">
            </path>
            <path
                d="M144.37,190.14a54.43,54.43,0,0,1-2.19,12.94,19.89,19.89,0,0,0-.75,2.64,12.8,12.8,0,0,0,1.09-2.56,40.88,40.88,0,0,0,1.65-6.42,42.78,42.78,0,0,0,.56-6.59,10.9,10.9,0,0,0-.21-2.73A24.79,24.79,0,0,0,144.37,190.14Z"
                style="fill:#f5f5f5">
            </path>
            <path
                d="M140.33,174.69a15,15,0,0,0-.24,2.43,25.23,25.23,0,0,0,1.19,8.87l.12.38.22-.34a9,9,0,0,0,.76-5.26c-.1-1.88-.22-3.87-.38-6a51.94,51.94,0,0,0-2.62-13.37,8.22,8.22,0,0,0-2-3.38,1.93,1.93,0,0,0-1-.55,1.17,1.17,0,0,0-1.13.42,2.82,2.82,0,0,0-.28,1.93c.18,2.4.35,4.72.51,6.93.34,4.39.64,8.37.9,11.75a52.31,52.31,0,0,0,1,7.89,19.3,19.3,0,0,0,.63,2.09,4.82,4.82,0,0,0,.31.7,6.14,6.14,0,0,0-.22-.73c-.15-.47-.34-1.18-.53-2.09a61.49,61.49,0,0,1-.8-7.89l-.8-11.74c-.15-2.23-.31-4.53-.49-6.94a2.63,2.63,0,0,1,.22-1.63c.31-.43.94-.25,1.36.18a8,8,0,0,1,1.91,3.21,52.93,52.93,0,0,1,2.62,13.26c.17,2.08.29,4.08.42,5.95a8.86,8.86,0,0,1-.67,5.07h.34a26.21,26.21,0,0,1-1.35-8.73c0-1,.14-1.87.14-2.42a6,6,0,0,0,.07-.85A4.13,4.13,0,0,0,140.33,174.69Z"
                style="fill:#f5f5f5">
            </path>
            <path
                d="M52.35,243.94c1.76,3.14,3.3,6,4.47,8a17.16,17.16,0,0,0,2.09,3.21,18.09,18.09,0,0,0-1.56-3.45c-1.05-2.08-2.52-4.95-4.25-8.09s-3.29-6-4.45-8a27,27,0,0,0-2-3.24C46.38,232.46,49,237.66,52.35,243.94Z"
                style="fill:#e0e0e0">
            </path>
            <path
                d="M47.52,241.52a29.53,29.53,0,0,0-7.65-3.27c-.09.19,3.26,1.76,7.23,3.93s7,4.16,7.19,4S51.55,243.71,47.52,241.52Z"
                style="fill:#e0e0e0">
            </path>
            <path
                d="M34.84,255.86a58.12,58.12,0,0,0-14.39,12.27c.18.12,3.26-2.74,7.22-6.12s7.32-6,7.17-6.15Z"
                style="fill:#e0e0e0">
            </path>
            <path
                d="M22.71,262.06a28.59,28.59,0,0,0-5.18,1.53c.06.29,2.5-.08,5.42-.8s5.22-1.47,5.15-1.67A20.45,20.45,0,0,0,22.71,262.06Z"
                style="fill:#e0e0e0">
            </path>
            <path
                d="M97.32,148.62c-.61,1.13-1.35,2.56-2.21,4.23-1.85,3.58-4.32,8.55-7,14.07-.66,1.38-1.31,2.78-2,4l-.92,1.92a11.17,11.17,0,0,0-.71,1.93,7.87,7.87,0,0,1-2.11,3l-2.31,2.49-3.29,3.58a6.76,6.76,0,0,0-1.13,1.38A8.06,8.06,0,0,0,77,184l3.5-3.42,2.38-2.38a8.12,8.12,0,0,0,2.33-3.17,10.58,10.58,0,0,1,.71-1.87c.3-.66.62-1.26.94-1.91l2-4c2.71-5.5,5.08-10.52,6.78-14.15l2-4.33a6.88,6.88,0,0,0,.63-1.63A6.36,6.36,0,0,0,97.32,148.62Z"
                style="fill:#e0e0e0">
            </path>
            <path
                d="M104.57,151.15a79.26,79.26,0,0,0-13,8.89c.17.18,3.2-1.68,6.78-4.14s6.36-4.57,6.22-4.75Z"
                style="fill:#e0e0e0">
            </path>
            <path
                d="M90.17,161.37c.06-2,0-4.58-.08-7.49s-.34-5.51-.56-7.41a10.55,10.55,0,0,0-.53-3c-.23,0,0,4.7.26,10.48s.41,10.46.64,10.46A11.65,11.65,0,0,0,90.17,161.37Z"
                style="fill:#e0e0e0">
            </path>
            <path
                d="M53.73,164.76a8.8,8.8,0,0,0-2.71,0c-2.22.35-5.33-.13-8.81-.45s-6.63-.56-8.91-.7a17.79,17.79,0,0,0-3.72-.07,19.46,19.46,0,0,0,3.65.61c2.28.27,5.45.63,8.89.92s6.66.72,9,.23a10.37,10.37,0,0,1,2.61-.25,5.37,5.37,0,0,1,1,.12S54.45,164.9,53.73,164.76Z"
                style="fill:#e0e0e0">
            </path>
            <path
                d="M40.12,165.52c-1.28.62-3,1.5-4.87,2.49-3.76,2-6.71,3.77-6.6,4s3.24-1.29,7-3.29c1.88-1,3.56-2,4.76-2.67l1.35-.88c.14-.13.4-.27.34-.38s-.13-.07-.2,0,0,.06,0,.06A12.13,12.13,0,0,0,40.12,165.52Z"
                style="fill:#e0e0e0">
            </path>
            <path
                d="M56.84,108.41c-.76-.65-1.91-1.49-3.27-2.5-2.79-2-6.74-4.74-11.2-7.57s-8.61-5.26-11.66-6.94c-1.54-.84-2.77-1.5-3.65-1.94a7.27,7.27,0,0,0-1.36-.62,40.07,40.07,0,0,0,4.74,3c2.95,1.79,7,4.27,11.5,7.11s8.44,5.46,11.32,7.38a43.4,43.4,0,0,0,4.73,3S57.6,109.06,56.84,108.41Z"
                style="fill:#e0e0e0">
            </path>
            <path
                d="M31.6,88.85a25.62,25.62,0,0,0-1.79-4.14A12.68,12.68,0,0,0,33.43,93C33.64,92.85,32.59,91.11,31.6,88.85Z"
                style="fill:#e0e0e0">
            </path>
            <path
                d="M34.94,98.73a97.19,97.19,0,0,0-11.88-2.12c-.06.21,5.22,1.48,11.69,2.86s11.89,2.31,11.89,2.1A99.23,99.23,0,0,0,34.94,98.73Z"
                style="fill:#e0e0e0">
            </path>
            <path
                d="M89.82,105l-3.76-3.74c-3.18-3.15-7.56-7.51-12.35-12.38s-9-9.33-12.14-12.56l-3.66-3.81a11.34,11.34,0,0,0-1.42-1.35,8.23,8.23,0,0,0,1.18,1.53c.74,1,2,2.31,3.45,4,3,3.32,7.18,7.85,12,12.72s9.25,9.18,12.55,12.24c1.65,1.53,3,2.76,4,3.58a10.3,10.3,0,0,0,1.53,1.25A9.49,9.49,0,0,0,89.82,105Z"
                style="fill:#e0e0e0">
            </path>
            <path
                d="M67.4,84.2c-1.94-.92-4.64-2.11-7.66-3.42S54,78.34,52,77.55a16.66,16.66,0,0,0-3.32-1.13A15.15,15.15,0,0,0,51.71,78c2,.93,4.67,2.13,7.68,3.43s5.76,2.43,7.77,3.23a16.66,16.66,0,0,0,3.32,1.13A15.62,15.62,0,0,0,67.4,84.2Z"
                style="fill:#e0e0e0">
            </path>
            <path
                d="M71.69,83.45c1.22,3.72,2.22,6.74,2.44,6.69s-.42-3.16-1.64-6.9a26.78,26.78,0,0,0-2.71-6.59C69.55,76.71,70.47,79.73,71.69,83.45Z"
                style="fill:#e0e0e0">
            </path>
            <path
                d="M147.38,76c.74-1.18,1.64-2.67,2.72-4.45,2.25-3.77,5.35-9,8.88-14.67s6.79-10.8,9.17-14.54c1-1.75,2-3.23,2.71-4.4a8,8,0,0,0,.93-1.66,9.15,9.15,0,0,0-1.2,1.51c-.74,1-1.77,2.45-3,4.28-2.51,3.64-5.86,8.74-9.39,14.44s-6.56,10.95-8.69,14.79c-1.1,1.92-1.9,3.48-2.46,4.57a8.13,8.13,0,0,0-.78,1.73A8.85,8.85,0,0,0,147.38,76Z"
                style="fill:#e0e0e0">
            </path>
            <path
                d="M161.81,49.85c.33-2,.73-4.73,1.13-7.77s.7-5.8.89-7.81A13.18,13.18,0,0,0,164,31a12.66,12.66,0,0,0-.71,3.2c-.34,2-.75,4.73-1.14,7.77s-.7,5.8-.88,7.81a13.11,13.11,0,0,0-.14,3.25A12.5,12.5,0,0,0,161.81,49.85Z"
                style="fill:#e0e0e0">
            </path>
            <path
                d="M87.59,49.9c.19,1.91.55,4.51,1,7.41s1.06,5.47,1.53,7.34a11.64,11.64,0,0,0,1,3c.23,0-.66-4.69-1.67-10.43s-1.73-10.41-2-10.41A10.46,10.46,0,0,0,87.59,49.9Z"
                style="fill:#e0e0e0">
            </path>
            <path
                d="M85.52,54.13a25.6,25.6,0,0,0-4.15-3.83c-.18.13,1.34,2.12,3.54,4.34s4.23,3.78,4.39,3.63S87.7,56.32,85.52,54.13Z"
                style="fill:#e0e0e0">
            </path>
            <path
                d="M28.29,119.65c-6.1-1-11.13-1.66-11.13-1.45a85,85,0,0,0,11,2.19c6.11,1,11.14,1.68,11.14,1.46S34.4,120.66,28.29,119.65Z"
                style="fill:#e0e0e0">
            </path>
            <path
                d="M183.84,168a54.12,54.12,0,0,1-8.43-.95c-3.28-.59-6.26-1.17-8.44-1.42a13.43,13.43,0,0,0-3.58-.15,22.56,22.56,0,0,0,3.48.69l8.38,1.63a39.31,39.31,0,0,0,8.6.74,10.22,10.22,0,0,0,3.52-.56C187.36,167.85,186,168,183.84,168Z"
                style="fill:#e0e0e0">
            </path>
            <path
                d="M183.36,170.2c-1.14-1.55-2.21-2.72-2.4-2.6s.57,1.48,1.71,3,2.22,2.71,2.41,2.6A7.81,7.81,0,0,0,183.36,170.2Z"
                style="fill:#e0e0e0">
            </path>
            <polygon
                points="132.24 423.52 98.23 387.7 65.43 376.36 62.52 378.43 93.93 391.69 134.93 436.15 132.24 423.52"
                style="fill:#e0e0e0">
            </polygon>
            <polygon
                points="145.02 358.98 176.31 326.37 214.18 319.63 212.21 326.37 180.93 331.43 152.24 376.58 145.02 358.98"
                style="fill:#e0e0e0">
            </polygon>
        </g>
        <g id="freepik--freepik--Moon--inject-216--inject-2">
            <path
                d="M305.44,79.67c-2.22-1.74-3.86-5.2-6.62-4.63-2.33.48-3,3.55-4.92,5-1.37,1-3.23,1.12-5,1.19a113.57,113.57,0,0,0-26,4,17.13,17.13,0,0,1,14.15-9.41c1.52-.08,3.12,0,4.45-.7,1.68-.9,2.42-2.81,3.3-4.48a12.74,12.74,0,0,1,5.05-5.53,7,7,0,0,1,7.11.15,18.07,18.07,0,0,1,8.55-12.57,50.06,50.06,0,0,0-95.72,28.82l.76.12a13.23,13.23,0,0,1,10.1,12.5,14.32,14.32,0,0,1,22.74,12.63c2.68-1.76,6.33-1.07,9.15.45s5.22,3.77,8.07,5.24c4.3,2.24,9.26,2.57,14,3.78.5.13,1,.28,1.49.44a50.13,50.13,0,0,0,31.21-35.9A6.46,6.46,0,0,1,305.44,79.67Z"
                style="fill:#e0e0e0">
            </path>
        </g>
    </g>
    <g id="freepik--Floor--inject-2">
        <path
            d="M472.43,468.81c0,.14-99.6.26-222.42.26S27.57,469,27.57,468.81s99.57-.26,222.44-.26S472.43,468.66,472.43,468.81Z"
            style="fill:#263238">
        </path>
    </g>
    <g id="freepik--Plant--inject-2">
        <path
            d="M178,421.84a8.86,8.86,0,0,1,5.32,4.45,15.67,15.67,0,0,1,1.66,6.87c.17,4.6-1.7,9.55-3.92,13.58-4.31-2.74-6.06-8.4-6.77-11.33-1.12-4.63-.34-13.67,3.71-13.57"
            style="fill:#455a64">
        </path>
        <path
            d="M186.63,453.52a7.55,7.55,0,0,1,1.34-7.46,10,10,0,0,1,7-3.4,4.21,4.21,0,0,1,3.43,1,3.23,3.23,0,0,1,.54,3.23,6.56,6.56,0,0,1-2,2.72c-3,2.57-6.34,4.51-10.24,3.95"
            style="fill:#455a64">
        </path>
        <path
            d="M183.86,468.11a4.91,4.91,0,0,1,0-.94c0-.67.05-1.54.08-2.58a26.63,26.63,0,0,1,1.37-8.41,16.29,16.29,0,0,1,4.83-7,11,11,0,0,1,2.19-1.4,5.8,5.8,0,0,1,.65-.27c.15-.06.23-.08.23-.07a15.08,15.08,0,0,0-7.58,8.84,28.24,28.24,0,0,0-1.45,8.3c-.07,1.09-.13,2-.19,2.57A4.68,4.68,0,0,1,183.86,468.11Z"
            style="fill:#263238">
        </path>
        <path
            d="M178,428.78a3,3,0,0,1,.1.4c.07.3.15.68.25,1.15.21,1,.49,2.46.82,4.26.67,3.6,1.52,8.59,2.33,14.12s1.44,10.56,1.84,14.2c.2,1.82.35,3.29.44,4.31,0,.49.08.88.1,1.18a1.82,1.82,0,0,1,0,.41,2,2,0,0,1-.08-.4c0-.3-.09-.69-.16-1.17-.13-1.06-.31-2.52-.54-4.3-.46-3.64-1.12-8.65-1.94-14.18s-1.62-10.52-2.23-14.13c-.3-1.77-.54-3.22-.72-4.27-.07-.48-.14-.87-.18-1.17S178,428.78,178,428.78Z"
            style="fill:#263238">
        </path>
        <path
            d="M180.47,457.27A17.69,17.69,0,0,0,169,445.92c-1.37-.41-3.09-.56-4,.54s-.41,2.77.3,4a15.11,15.11,0,0,0,15.14,7.19"
            style="fill:#455a64">
        </path>
        <path
            d="M170.25,450.11a4.59,4.59,0,0,1,.87.23,8.6,8.6,0,0,1,1,.35c.37.16.82.31,1.27.55a14.68,14.68,0,0,1,1.48.8,17.25,17.25,0,0,1,1.61,1.07,18.05,18.05,0,0,1,5.59,6.78,16.08,16.08,0,0,1,.73,1.79,13.61,13.61,0,0,1,.48,1.61c.14.49.19,1,.27,1.36a7.73,7.73,0,0,1,.12,1,4.59,4.59,0,0,1,0,.89c-.08,0-.14-1.27-.66-3.23a15.91,15.91,0,0,0-.51-1.58,18,18,0,0,0-.75-1.75,19.44,19.44,0,0,0-2.36-3.65,21,21,0,0,0-3.13-3c-.54-.39-1.06-.77-1.57-1.07a16.22,16.22,0,0,0-1.44-.83C171.46,450.53,170.23,450.18,170.25,450.11Z"
            style="fill:#263238">
        </path>
    </g>
    <g id="freepik--Bats--inject-2">
        <path
            d="M364.41,91c-4.72,1.74-10.55,17-10.55,17l-2.38-1.75L348.41,96.1a.43.43,0,0,0-.84.09l-.36,2.48c-.56,3.81-2.3,4.93-2.75,5.15l0,0s-2.17.89-5.4-2l-1.83-1.64a.44.44,0,0,0-.68.51l4,9.76-.72,3s-13.94-7.59-18.6-5.68c-7.1,2.91-23,15.72-23,15.72s15-6.63,23.69,2.89a8,8,0,0,1,9.49-2.13,7.26,7.26,0,0,1,4.69,8.36s10.68-5.9,20.65,6.65l.4,1.13c0-.22,0-.43,0-.64l.35.44-.36-1c-.28-16.31,11.49-19.13,11.49-19.13s-4.78-3.55-1.66-9.54,8.52-4.87,8.52-4.87c.65-13.16,16.14-18.37,16.14-18.37S371.6,88.31,364.41,91Z"
            style="fill:#263238">
        </path>
        <path
            d="M146.05,319.07c-4.71-1.79-19.12,5.91-19.12,5.91l-.66-2.88,4.32-9.65a.43.43,0,0,0-.69-.48L128,313.6c-2.92,2.51-5,2.22-5.45,2.09l0-.05s-2.23-.76-2.77-5.05l-.31-2.43a.44.44,0,0,0-.85-.07l-3.39,10-2.48,1.76s-5.55-14.87-10.31-16.49c-7.27-2.46-27.65-3.2-27.65-3.2s15.66,4.83,16,17.73a8,8,0,0,1,8.56,4.62,7.24,7.24,0,0,1-1.94,9.38s11.93,2.55,11.23,18.57l-.45,1.12.41-.5,0,.56.39-1c10.49-12.49,21.23-6.9,21.23-6.9s-1.28-5.81,5-8.28,9.63,1.91,9.63,1.91c9.12-9.5,24.23-3.28,24.23-3.28S153.21,321.79,146.05,319.07Z"
            style="fill:#263238">
        </path>
        <path
            d="M177.36,72.89C174.69,71.68,166,75.66,166,75.66l-.28-1.7,2.85-5.47a.25.25,0,0,0-.38-.3l-1.17.88c-1.79,1.36-3,1.12-3.25,1l0,0s-1.27-.52-1.44-3l-.1-1.43a.26.26,0,0,0-.49-.07l-2.32,5.7-1.51.93s-2.71-8.85-5.43-10c-4.15-1.69-16-2.83-16-2.83s8.95,3.36,8.69,10.88a4.68,4.68,0,0,1,4.82,3,4.23,4.23,0,0,1-1.46,5.4s6.87,1.91,5.9,11.21l-.3.64c.08-.1.17-.19.25-.28l0,.33.26-.57c6.55-6.91,12.61-3.28,12.61-3.28a4.28,4.28,0,0,1,3.2-4.65A4.73,4.73,0,0,1,176,83.49c5.65-5.22,14.24-1.06,14.24-1.06S181.44,74.72,177.36,72.89Z"
            style="fill:#263238">
        </path>
        <path
            d="M364.25,408.35c-2.79.91-6.5,9.7-6.5,9.7L356.39,417l-1.58-6a.25.25,0,0,0-.49,0l-.26,1.45c-.41,2.21-1.44,2.82-1.71,2.94v0s-1.29.48-3.11-1.27l-1-1a.26.26,0,0,0-.41.28l2.12,5.77-.48,1.71s-8-4.71-10.73-3.7c-4.2,1.55-13.72,8.7-13.72,8.7s8.88-3.56,13.76,2.17a4.68,4.68,0,0,1,5.58-1,4.23,4.23,0,0,1,2.56,5s6.35-3.23,11.91,4.3l.21.67v-.38l.2.27-.19-.59c.17-9.53,7.1-10.93,7.1-10.93a4.29,4.29,0,0,1-.78-5.59,4.74,4.74,0,0,1,5.07-2.67c.65-7.66,9.8-10.38,9.8-10.38S368.5,407,364.25,408.35Z"
            style="fill:#263238">
        </path>
    </g>
    <g id="freepik--Ghost--inject-2">
        <path
            d="M382,308.9c-5-5.34-12.45-8.75-15.35-15.49-3-7,0-15.28,4.52-21.49s10.36-11.44,14-18.18c8.27-15.34,2.48-35.43-9.77-47.82S345.84,187.51,328.77,184l-97.34-23.65c1.75,8.28-11,14.48-21.08,16-7.11,1.07-17.51-3.77-18-10.94s2.85-14,4.73-20.91S199,129,193.47,124.43c-8.64-7.24-22.87.75-32.72-4.73-5.31-3-7.91-9-12.07-13.48-9.28-9.88-25.35-10.09-37.92-5S96.68,125.43,85.43,133s-33.51,3.83-46.82,1.26c2.84.53,20.24,10.68,30,10.14S80.92,142.52,89,137s15.83-11.73,24.91-15.39c7-2.84,15.86-3.71,21.45,1.39,4.9,4.47,5.55,11.94,4.84,18.53s-2.43,13.29-1,19.77,7.48,12.66,13.95,11.18c3.11-.71,5.81-3.06,9-3.1,7-.08,8.91,9.38,10.24,16.27,4.33,22.44,25.74,37.8,47.51,44.74s45.06,7.82,67,14.23,43.88,20.52,49.82,42.58c2.9,10.76,2.14,23.39,9.86,31.43,5.15,5.37,13.15,7.44,17.89,13.18,5.21,6.29,5.1,15.87,1.21,23.05s-11,12.18-18.45,15.42c-4.33,1.87-8.94,3.26-12.77,6s-6.84,7.31-6.1,12a60.71,60.71,0,0,1,41.82-13.92C377.32,364.6,384.62,354.6,388,343S390.29,317.7,382,308.9ZM165.82,156.42c-.33,4.06-3.74,7.31-7.53,8.78-2.95,1.15-6.49,1.39-9.13-.37-3.27-2.17-4.13-6.66-3.68-10.56s1.9-7.67,2.08-11.59l-.56,1.2c1-2.79-1-5.75-1.14-8.72a6.56,6.56,0,0,1,9.25-6.2c2.71,1.22,4.28,4.12,5,7s.94,5.89,1.88,8.72C163.35,148.62,166.16,152.28,165.82,156.42Zm2-26.81-.28-.09c3.52-3.29,8.71-3.92,13.52-4.25,3.23-.22,6.58-.37,9.6.8s5.64,4,5.53,7.24c-.09,2.83-2.26,5.29-4.86,6.45a17.66,17.66,0,0,1-8.36,1.05,21.61,21.61,0,0,1-10-2.68C170,136.3,167.71,133.09,167.78,129.61Zm8.24,22,.37-1.1a3.07,3.07,0,0,1,5.39-1,4.9,4.9,0,0,1,.81,2.95,6.37,6.37,0,0,1-.7,3.25,3.3,3.3,0,0,1-2.71,1.74,3.34,3.34,0,0,1-2.89-2.11A6.63,6.63,0,0,1,176,151.57Zm11.28,35.65a10,10,0,0,1-7.25-5.1,21.45,21.45,0,0,1-2.89-8.61,20.12,20.12,0,0,1,.25-8.39,3.34,3.34,0,0,1,1.35-2.25c1.26-.67,2.82.41,3.4,1.71s.58,2.78,1.05,4.13c1,2.79,3.75,4.45,6.19,6.11s5,4,4.93,6.91C194.29,185.08,190.63,187.56,187.3,187.22Zm163.15,81.31a12.92,12.92,0,0,1,8.71-6.88c2-.45,4.52-.22,5.68,1.51,1.07,1.57.59,3.7,0,5.49a21.4,21.4,0,0,1-4.32,7.69,10.68,10.68,0,0,1-7.86,3.58l-2.17-.28A12.94,12.94,0,0,1,350.45,268.53Zm22.17,60c-2.49-1-3.8-3.76-6-5.36-3-2.2-7.11-1.91-10.57-3.26-3.75-1.46-6.52-4.81-8.11-8.5a40.38,40.38,0,0,1-2.58-11.74c-.43-3.4.9-3.28,1-5.15a12.62,12.62,0,0,1,.91-5.47c.86-1.65,2.94-2.85,4.62-2.05,1.4.67,2,2.41,1.91,4s-.54,3.05-.6,4.6c-.14,3.57,2.09,6.88,4.94,9s6.27,3.34,9.62,4.58,6.73,2.61,9.37,5,4.39,6.08,3.58,9.55S375.92,329.88,372.62,328.53Zm10,11.62a6.39,6.39,0,0,1-3.4,3.54,3,3,0,0,1-2.79-.1,3.48,3.48,0,0,1-1.25-2.09,9.08,9.08,0,0,1,.87-6.56c.78-.81,1.63-2.05,2.68-2.45s3.29-.05,4,.84a3.55,3.55,0,0,1,.55,1.86A10.71,10.71,0,0,1,382.63,340.15Z"
            style="fill:#FF725E">
        </path>
        <path
            d="M327.74,396.76a3.22,3.22,0,0,0-2,3.29,2.87,2.87,0,0,0,2.91,2.44c1.39-.09,3.16-1.92,2.93-3.29A3.34,3.34,0,0,0,327.74,396.76Z"
            style="fill:#FF725E">
        </path>
        <path
            d="M383.37,298.46c-4.09,0-7.73-3.27-9-7.17S374,283,375.84,279.4a38.82,38.82,0,0,1,7.61-9.58c-1.42,4.52-4.68,8.43-5.34,13.12-.83,6,2.7,11.6,6.08,16.6"
            style="fill:#FF725E">
        </path>
        <g style="opacity:0.8">
            <path
                d="M382,308.9c-5-5.34-12.45-8.75-15.35-15.49-3-7,0-15.28,4.52-21.49s10.36-11.44,14-18.18c8.27-15.34,2.48-35.43-9.77-47.82S345.84,187.51,328.77,184l-97.34-23.65c1.75,8.28-11,14.48-21.08,16-7.11,1.07-17.51-3.77-18-10.94s2.85-14,4.73-20.91S199,129,193.47,124.43c-8.64-7.24-22.87.75-32.72-4.73-5.31-3-7.91-9-12.07-13.48-9.28-9.88-25.35-10.09-37.92-5S96.68,125.43,85.43,133s-33.51,3.83-46.82,1.26c2.84.53,20.24,10.68,30,10.14S80.92,142.52,89,137s15.83-11.73,24.91-15.39c7-2.84,15.86-3.71,21.45,1.39,4.9,4.47,5.55,11.94,4.84,18.53s-2.43,13.29-1,19.77,7.48,12.66,13.95,11.18c3.11-.71,5.81-3.06,9-3.1,7-.08,8.91,9.38,10.24,16.27,4.33,22.44,25.74,37.8,47.51,44.74s45.06,7.82,67,14.23,43.88,20.52,49.82,42.58c2.9,10.76,2.14,23.39,9.86,31.43,5.15,5.37,13.15,7.44,17.89,13.18,5.21,6.29,5.1,15.87,1.21,23.05s-11,12.18-18.45,15.42c-4.33,1.87-8.94,3.26-12.77,6s-6.84,7.31-6.1,12a60.71,60.71,0,0,1,41.82-13.92C377.32,364.6,384.62,354.6,388,343S390.29,317.7,382,308.9ZM165.82,156.42c-.33,4.06-3.74,7.31-7.53,8.78-2.95,1.15-6.49,1.39-9.13-.37-3.27-2.17-4.13-6.66-3.68-10.56s1.9-7.67,2.08-11.59l-.56,1.2c1-2.79-1-5.75-1.14-8.72a6.56,6.56,0,0,1,9.25-6.2c2.71,1.22,4.28,4.12,5,7s.94,5.89,1.88,8.72C163.35,148.62,166.16,152.28,165.82,156.42Zm2-26.81-.28-.09c3.52-3.29,8.71-3.92,13.52-4.25,3.23-.22,6.58-.37,9.6.8s5.64,4,5.53,7.24c-.09,2.83-2.26,5.29-4.86,6.45a17.66,17.66,0,0,1-8.36,1.05,21.61,21.61,0,0,1-10-2.68C170,136.3,167.71,133.09,167.78,129.61Zm8.24,22,.37-1.1a3.07,3.07,0,0,1,5.39-1,4.9,4.9,0,0,1,.81,2.95,6.37,6.37,0,0,1-.7,3.25,3.3,3.3,0,0,1-2.71,1.74,3.34,3.34,0,0,1-2.89-2.11A6.63,6.63,0,0,1,176,151.57Zm11.28,35.65a10,10,0,0,1-7.25-5.1,21.45,21.45,0,0,1-2.89-8.61,20.12,20.12,0,0,1,.25-8.39,3.34,3.34,0,0,1,1.35-2.25c1.26-.67,2.82.41,3.4,1.71s.58,2.78,1.05,4.13c1,2.79,3.75,4.45,6.19,6.11s5,4,4.93,6.91C194.29,185.08,190.63,187.56,187.3,187.22Zm163.15,81.31a12.92,12.92,0,0,1,8.71-6.88c2-.45,4.52-.22,5.68,1.51,1.07,1.57.59,3.7,0,5.49a21.4,21.4,0,0,1-4.32,7.69,10.68,10.68,0,0,1-7.86,3.58l-2.17-.28A12.94,12.94,0,0,1,350.45,268.53Zm22.17,60c-2.49-1-3.8-3.76-6-5.36-3-2.2-7.11-1.91-10.57-3.26-3.75-1.46-6.52-4.81-8.11-8.5a40.38,40.38,0,0,1-2.58-11.74c-.43-3.4.9-3.28,1-5.15a12.62,12.62,0,0,1,.91-5.47c.86-1.65,2.94-2.85,4.62-2.05,1.4.67,2,2.41,1.91,4s-.54,3.05-.6,4.6c-.14,3.57,2.09,6.88,4.94,9s6.27,3.34,9.62,4.58,6.73,2.61,9.37,5,4.39,6.08,3.58,9.55S375.92,329.88,372.62,328.53Zm10,11.62a6.39,6.39,0,0,1-3.4,3.54,3,3,0,0,1-2.79-.1,3.48,3.48,0,0,1-1.25-2.09,9.08,9.08,0,0,1,.87-6.56c.78-.81,1.63-2.05,2.68-2.45s3.29-.05,4,.84a3.55,3.55,0,0,1,.55,1.86A10.71,10.71,0,0,1,382.63,340.15Z"
                style="fill:#fff">
            </path>
            <path
                d="M327.74,396.76a3.22,3.22,0,0,0-2,3.29,2.87,2.87,0,0,0,2.91,2.44c1.39-.09,3.16-1.92,2.93-3.29A3.34,3.34,0,0,0,327.74,396.76Z"
                style="fill:#fff">
            </path>
            <path
                d="M383.37,298.46c-4.09,0-7.73-3.27-9-7.17S374,283,375.84,279.4a38.82,38.82,0,0,1,7.61-9.58c-1.42,4.52-4.68,8.43-5.34,13.12-.83,6,2.7,11.6,6.08,16.6"
                style="fill:#fff">
            </path>
        </g>
        <path
            d="M277.2,99.36a2,2,0,0,0-2.58-2c-8.71,2.78-18.79,0-27.59,3-5.95,2-14.48,7.22-18.52,13L273.42,115c-.08-3,.4-6.25-2.8-7.74C274.66,106.37,276.87,103.41,277.2,99.36Z"
            style="fill:#FF725E">
        </path>
        <path
            d="M415.44,166.07l0-3.28,13,2.8,18.61,6.59c-1.53-2.22-12.79-10.51-12.79-10.51S412.54,147,411.11,146.19s-15.2-.59-20.93,3.78c-3.68,2.8-22.21,16.44-24.82,18.44a23.22,23.22,0,0,1-1.89,1.45c-5.11,3.55-20.5,12.06-45.12,6.86-23.13-4.9-30.49-28.94-32.71-40.44a41.52,41.52,0,0,0-13.23-23.57A36.14,36.14,0,0,0,257,104.64a33.44,33.44,0,0,0-10,0,28.76,28.76,0,0,0-5.18,1.17c-5.32,1.75-10,4.16-13.17,7.56-10.17,10.94-11.54,42.4-17,50.45-3.88,5.69-3.21,9.58-26.11,15.46-24.37,6.26-40.12-1.58-45.37-4.92a19.73,19.73,0,0,1-2-1.36c-2.7-1.89-21.8-14.72-25.59-17.36-5.91-4.12-19.68-3.72-21.07-2.88s-23.87,14.06-23.87,14.06S53,191.33,54.22,193.6L75,172.89l12.86-3.36s2,3.36.28,5.87-9.36,9.86-9.92,14a18.07,18.07,0,0,0,1.48,8.62L88.92,218s1.08-10.21.15-15.81a35.48,35.48,0,0,1,0-8.58L95.71,188l4.21,18.39s10,.21,14.83,3.41l2.84,14.69a5.39,5.39,0,0,0,8.54,3.27l11.7-8.83c0,.6.08,1.19.11,1.73.41,6.57-1.64,13.13-2.46,17.23s6.15,15.17,6.15,15.17c-1.23-7.38.82-16.81,1.89-12.3a147.37,147.37,0,0,0,6.73,24.2c4.92,13.53,8.3,12.58,10.76,13s10.15,10.38,11.38,14.49,10.67,14.35,10.67,14.35-1.23-14.76,1.64-13.12,11.07,17.22,11.48,18.86,2.87,25.84,3.28,29.53A148.7,148.7,0,0,0,204,365.89c3.28,12.3,9.43,12.3,9.43,12.3-2.05-8.61.82-12.71.82-12.71s4.52,5.74,4.11,7,2,21.33,2,21.33A105,105,0,0,1,232.68,411a143.29,143.29,0,0,0,9.84,15.59l2.87-10.26,7.12,18.87,11.72,15.42s-1.08-6.67-1.23-7.25c.34.75,14.39,17.16,14.39,17.16s3.92-32.36,4.21-30.89,2.35,3.53,2.35,3.53c4.53-9.22,8.78-40.66,8.78-40.66s1.59-20.19,1.13-21.4,3.8-7.14,3.8-7.14,3,4,1.36,12.67c0,0,6.15-.27,8.9-12.7a149.61,149.61,0,0,0,3.49-24c.25-3.7,1.67-28,2-29.64s8.06-18.12,11.19-19.48l-.41,16.61s11.07-14.08,12.12-18.23,8.3-14.44,10.75-15,5.86.29,10.2-13.44A149,149,0,0,0,363,236.38c.87-4.56,3.32,4.78,2.41,12.21,0,0,5.48-11.25,5.5-15.43,0-.73,10.61.84,10.74-5.74l-.2-13.87s10.39-17.54,9-17.83l4.61,20c-.64-4.28,10.15-26.65,10.77-27s5.41,8.57,5.41,8.57l3.49,12.06s3.81-9.05,4-11.59-4.76-17-4.29-17.09,8.93,5,8.93,5c-1.81,4.29-.42,9.61,2,15.27l7.89-17.59-8.2-9ZM158,193.42a9.82,9.82,0,0,1-6.49-5.09,2,2,0,0,1,.16-2.1l0,0a3.81,3.81,0,0,1,3-1.19,14.6,14.6,0,0,1,2.72.8,16.17,16.17,0,0,0,6.91.7,13.91,13.91,0,0,1,3.14-.25,3.08,3.08,0,0,1,2.56,1.6,2.82,2.82,0,0,1-.52,2.8,6.27,6.27,0,0,1-2.45,1.69A14.11,14.11,0,0,1,158,193.42Zm17.21,92.73c0,.52-8.51-10.42-10.42-12.67s-3.46-16-3-15.8c3.82,1.56,11.29,6.94,14.41,14.24S175.25,285.63,175.25,286.15Zm130.08,60.26c-.41,2.14-1.9,12.21-2.09,11.88s-5.17-2.93-5.81-8.73,2.19-11.95,4.07-14.33C301.75,334.92,305.73,344.28,305.33,346.41Z"
            style="fill:#FF725E">
        </path>
        <path
            d="M218,218s20.28,32.75,36.22,35.85,34.08,7.08,34.08,7.08-24.92,4.08-38.2.54S218.55,222.86,218,218Z"
            style="opacity:0.30000000000000004">
        </path>
        <g style="opacity:0.1">
            <path
                d="M282.22,137c2.43,21.75,15.2,42.64,35.32,51.25l-26.91-6c5.6,20.71,12,42.73,28.36,56.63a293,293,0,0,1-75.56-22.33q4.37,13.1,8.74,26.19a80.94,80.94,0,0,1-35.31-49.53,138.82,138.82,0,0,0-14.79,34.59c-.52-9.81-1-19.91,2.21-29.2,3.78-11,18.23-21.34,13.32-31.83-.72-1.55,2.93-30.61,5.74-40.29s14.89-20.35,28.27-20.34C262.9,106.12,279.42,112.06,282.22,137Z"
                style="fill:#fff">
            </path>
        </g>
        <path
            d="M224,148c.3,4.2.6,8.47,2.1,12.41s4.39,7.56,8.38,8.9,9-.21,10.79-4A59.13,59.13,0,0,1,224,148Z"
            style="fill:#263238">
        </path>
        <path
            d="M280.21,149c-.29,4.2-.6,8.47-2.1,12.41s-4.38,7.56-8.37,8.91-9.05-.21-10.8-4.05A59,59,0,0,0,280.21,149Z"
            style="fill:#263238">
        </path>
        <path
            d="M279.33,164.32c-3.25,6.18-8.09,10.77-13.08,15.67l-.5-3.62q-1.67,2.85-3.34,5.7l-1.87-3.39-2.79,4.6c-.69-1.42-.7-6.06-1.4-7.47-1.28,1.61-3.25,6.46-4.54,8.08-.57-1.55-1.15-3.09-1.73-4.64-.68,1.39-1.35,2.78-2,4.16A38,38,0,0,1,243,178c0,1.26,0,2.52-.07,3.79a26.47,26.47,0,0,1-7.94-9.36l-.51-.18c-.25,1.4-.51,2.81-.77,4.22-1.22-1.22-5.6-5-8.43-7.91a22.61,22.61,0,0,1-5.88-4.44l.11.53c7.37,10.86,16.33,27.17,28.95,30.78a26.17,26.17,0,0,0,12.31.4c3.78-.92,5.9-2.48,8.69-5.19,6.06-5.87,11.86-25.35,14.44-33.39C282.59,158.94,281.65,161.07,279.33,164.32Z"
            style="fill:#263238">
        </path>
        <path
            d="M248.28,165.9a6.11,6.11,0,0,1-1.3-.2,21,21,0,0,1-3.42-1.11,40.33,40.33,0,0,1-10-6.26,48.48,48.48,0,0,1-8.14-8.54,31.12,31.12,0,0,1-2-3,5.84,5.84,0,0,1-.6-1.17c.08,0,1,1.57,2.87,3.94a55,55,0,0,0,8.18,8.36,44.35,44.35,0,0,0,9.82,6.32A44.93,44.93,0,0,0,248.28,165.9Z"
            style="fill:#263238">
        </path>
        <path
            d="M281.12,147.48a5.72,5.72,0,0,1-.62,1.1,31.91,31.91,0,0,1-2,2.81,43.46,43.46,0,0,1-3.38,3.85,53.52,53.52,0,0,1-4.69,4.16,51.9,51.9,0,0,1-9.69,6c-1.32.62-2.41,1.07-3.18,1.34a6.18,6.18,0,0,1-1.21.39,5.27,5.27,0,0,1,1.13-.57c.74-.33,1.8-.83,3.09-1.49a58.93,58.93,0,0,0,9.53-6,58.26,58.26,0,0,0,4.68-4.09,50.64,50.64,0,0,0,3.43-3.74C280.06,148.94,281,147.43,281.12,147.48Z"
            style="fill:#263238">
        </path>
        <path
            d="M246.35,154.21a5.47,5.47,0,0,1,1.78.55,5.93,5.93,0,0,1,3.35,3.05,4.64,4.64,0,0,1,.17,2.56,7.28,7.28,0,0,1-.73,1.93,5.06,5.06,0,0,1-1.09,1.52,10.24,10.24,0,0,1,.76-1.68A5.51,5.51,0,0,0,251,158a6.08,6.08,0,0,0-3-2.91A7.89,7.89,0,0,1,246.35,154.21Z"
            style="fill:#263238">
        </path>
        <path
            d="M255.6,164.32c-.07.12-1.11-.7-1.36-2.21a2.79,2.79,0,0,1,.54-2.54,14.79,14.79,0,0,0,0,2.45A14.6,14.6,0,0,0,255.6,164.32Z"
            style="fill:#263238">
        </path>
        <path
            d="M248.92,194.25s2.55,8.35,2.71,7.91,1.55-7.15,1.55-7.15l-4.26-1.41"
            style="fill:#263238">
        </path>
        <path
            d="M127.34,178a2,2,0,0,1,.32.49c.19.34.46.84.8,1.49a24.79,24.79,0,0,1,2.21,5.81,11.33,11.33,0,0,1-1.69,8.95,17,17,0,0,1-3.73,4,31.17,31.17,0,0,1-5,3.1c-1.2.61-2.4,1.17-3.54,1.7l-.57.27.22-.59a37.77,37.77,0,0,0,2.57-9.44,14.29,14.29,0,0,0-.18-4.17,11.93,11.93,0,0,0-1.25-3.38,9.16,9.16,0,0,0-3.57-3.69,15.49,15.49,0,0,0-1.75-.74,5.26,5.26,0,0,1,1.84.58,9,9,0,0,1,3.78,3.68,12.37,12.37,0,0,1,1.35,3.47,14.73,14.73,0,0,1,.23,4.29,37.29,37.29,0,0,1-2.54,9.58l-.35-.33c1.14-.53,2.33-1.09,3.52-1.69,3.54-1.78,6.69-4,8.55-6.92A11.42,11.42,0,0,0,130.4,190a11.85,11.85,0,0,0-.09-4.18,26.35,26.35,0,0,0-2-5.8c-.28-.62-.52-1.13-.71-1.53A3.36,3.36,0,0,1,127.34,178Z"
            style="fill:#263238">
        </path>
        <path
            d="M111,174.12a3.78,3.78,0,0,1-.55.32l-1.64.84-6,3,.11-.2a28.88,28.88,0,0,1-.3,12.24l-.08.33-.29-.17a30.16,30.16,0,0,1-5.65-4.23,29.53,29.53,0,0,1-3.79-4.35,8.86,8.86,0,0,1-1.37-2.44,4,4,0,0,1,.18-2.72,24.61,24.61,0,0,1,1.13-2.24l1.11-2.07,2-3.71,2.93-5.34c.34-.59.61-1.07.82-1.45a3.37,3.37,0,0,1,.32-.48,2.12,2.12,0,0,1-.22.53c-.2.39-.44.89-.74,1.49l-2.79,5.43c-.59,1.14-1.25,2.39-1.94,3.73-.36.67-.72,1.37-1.09,2.08A23.86,23.86,0,0,0,92,176.89a3.45,3.45,0,0,0-.15,2.39,8.25,8.25,0,0,0,1.3,2.29,31.08,31.08,0,0,0,3.74,4.28,30.69,30.69,0,0,0,5.54,4.17l-.37.15a29.17,29.17,0,0,0,.41-12l0-.15.13-.06,6.11-2.82,1.68-.75A2.72,2.72,0,0,1,111,174.12Z"
            style="fill:#263238">
        </path>
        <g style="opacity:0.30000000000000004">
            <path
                d="M228.81,116.14a37.09,37.09,0,0,0-7,14.63,110.89,110.89,0,0,0-2.44,16.14l0,.56c2.45-4.2,4-8.84,5.93-13.32s4.23-8.91,7.83-12.19c3.15-2.87,7.1-4.69,10.77-6.87s7.26-4.94,8.93-8.86A28.16,28.16,0,0,0,228.81,116.14Z"
                style="fill:#fff">
            </path>
        </g>
        <g style="opacity:0.30000000000000004">
            <path
                d="M244.67,161.72c-.19.3-1.4-.06-3.2-.93a39.42,39.42,0,0,1-6.68-4.13,27.11,27.11,0,0,1-5.61-5.61c-1.19-1.67-1.62-2.9-1.34-3.1s1.25.6,2.71,1.87,3.48,3,5.83,4.78,4.54,3.38,6.07,4.64S244.87,161.41,244.67,161.72Z"
                style="fill:#fff">
            </path>
        </g>
        <g style="opacity:0.1">
            <path
                d="M201.7,181.86c-9.65,32-5.37,46.2,5.31,63.75q2.72-8,5.45-15.91a87.19,87.19,0,0,0,101.35,48.55c-13.95,15.88-37.6,22.47-57.75,16.08q9.68,19.07,19.36,38.11c.62,1.22,1.21,2.79.37,3.86s-2.35.9-3.62.64c-23.07-4.72-40.83-23-54.94-41.83-20.9-27.91-39.68-64.14-50.69-97.22,0,0,7.33-2.14,8-7.66s3-6,3-6l27.3-6.25Z"
                style="fill:#fff">
            </path>
        </g>
        <path
            d="M194.48,251a3.18,3.18,0,0,1,.07.66c0,.49.06,1.11.1,1.89.07,1.7.17,4.06.3,6.94.27,5.92.63,14,1,22.91s.62,17.06.66,22.93c0,2.94,0,5.31,0,7,0,.78,0,1.41-.05,1.89a2.78,2.78,0,0,1-.06.66,4.73,4.73,0,0,1,0-.66c0-.48,0-1.11-.05-1.89,0-1.7-.08-4.06-.14-6.94-.13-5.87-.42-14-.81-22.92s-.73-17.05-.88-22.92c-.08-2.93-.13-5.31-.13-6.95v-1.89A2.82,2.82,0,0,1,194.48,251Z"
            style="fill:#263238">
        </path>
        <path
            d="M218.21,374c-.15,0,.32-17.69,1-39.5S220.66,295,220.81,295s-.32,17.68-1,39.5S218.35,374,218.21,374Z"
            style="fill:#263238">
        </path>
        <g style="opacity:0.30000000000000004">
            <path
                d="M98.81,188.58l5.58,5.07a2.28,2.28,0,0,0,1.35.74,1.5,1.5,0,0,0,1.33-1,4.43,4.43,0,0,0,.15-1.78c-.15-2.77-.29-5.53-.44-8.3a8.09,8.09,0,0,1,.15-2.6c.77-2.73,4.12-4,5.25-6.56a73.42,73.42,0,0,0-7.74,2.89,3.26,3.26,0,0,0-1.48,1,3.62,3.62,0,0,0,0,2.82,18.78,18.78,0,0,1-.34,9.53l-2.76-2.11">
            </path>
        </g>
        <g style="opacity:0.30000000000000004">
            <path
                d="M118.64,189.11a38.77,38.77,0,0,1-5,17.34,6.24,6.24,0,0,0,4.64-.35,16.47,16.47,0,0,0,3.89-2.71c3.5-3,7-6.49,8-11a25.43,25.43,0,0,1-13.42,10.36,20.23,20.23,0,0,0,2-14">
            </path>
        </g>
        <path
            d="M225.32,315.78s-2,56.48-2,64.91c-.05,15.72,18.08,38.52,18.08,38.52l1.71-53.42s-4.85,28.72-6,20.36S225.32,315.78,225.32,315.78Z"
            style="fill:#fff;opacity:0.1">
        </path>
        <g style="opacity:0.1">
            <path
                d="M202.07,289.45a233.53,233.53,0,0,0,6.46,72.84q3.33-19.74,6.65-39.47l-5.85,15.64a272.85,272.85,0,0,0-6.1-46.42"
                style="fill:#fff">
            </path>
        </g>
        <g style="opacity:0.1">
            <path
                d="M154.37,206.26A129.74,129.74,0,0,0,156,233.61a157.16,157.16,0,0,1-8-38.11,61.87,61.87,0,0,0-.73,10.18v-.08c-.8,16.94,2.82,41.74,7.61,58q2.53-8.51,5.06-17a48,48,0,0,0,22,20C171.39,247,160.9,227.39,154.37,206.26Z"
                style="fill:#fff">
            </path>
        </g>
        <g style="opacity:0.1">
            <path
                d="M368.24,193.86l-4-20.3-15.76,7.28c-7.77,3.82-16.77,5.82-25.16,3.68l-1.71,1.6c3.33,3.22,6.69,6.48,9.19,10.39s4.08,8.57,3.47,13.16c-.9,6.8-6.38,12.46-6.76,19.31a85.06,85.06,0,0,0,16.8-18.62,186.85,186.85,0,0,1-5.15,52.05c13.28-15.89,16.34-43.74,21.31-63.85,2.64,8.19,2,34.2,3.77,37.71C364.21,236.27,368.59,209.9,368.24,193.86Z"
                style="fill:#fff">
            </path>
        </g>
        <g style="opacity:0.1">
            <path
                d="M137.41,178.91c-6.25-7-13.76-12.81-21.22-18.54a48.57,48.57,0,0,0-8.33-5.53,16.26,16.26,0,0,0-9.71-1.67l-.85.09a19.53,19.53,0,0,0-8.9,3.32c-3,2.1-13,6.31-15.67,8.86,4.75-2.37,16.77-6.24,21.85-7.82a16.6,16.6,0,0,1-.35,7.64,21.56,21.56,0,0,1,6.62-6.45,2.41,2.41,0,0,1,1.85-.5,1.72,1.72,0,0,1,1,1.86,5.34,5.34,0,0,1-.87,2.13,41,41,0,0,0-5.07,15.31A22.93,22.93,0,0,1,114.07,167a31.93,31.93,0,0,1,9.45,21,13,13,0,0,0,2.57-7.8,38.66,38.66,0,0,0-1-8.28A20.81,20.81,0,0,0,137.41,178.91Z"
                style="fill:#fff">
            </path>
        </g>
        <path
            d="M393.61,166.77a3.27,3.27,0,0,1,.6.23l1.68.74,6.11,2.83.13.06,0,.14a29.22,29.22,0,0,0,.41,12.06l-.37-.16a30.69,30.69,0,0,0,5.54-4.17,31,31,0,0,0,3.74-4.27,8.39,8.39,0,0,0,1.3-2.29,3.48,3.48,0,0,0-.15-2.4c-.3-.76-.72-1.48-1.09-2.2s-.73-1.41-1.09-2.08c-.69-1.34-1.35-2.59-1.94-3.74-1.16-2.24-2.1-4.08-2.79-5.42l-.74-1.49a2.3,2.3,0,0,1-.22-.53,2.46,2.46,0,0,1,.31.48l.83,1.44c.72,1.33,1.72,3.14,2.93,5.35.62,1.14,1.29,2.38,2,3.71.36.66.74,1.35,1.12,2.06s.8,1.43,1.13,2.25a4,4,0,0,1,.18,2.71,9.07,9.07,0,0,1-1.37,2.45,29.53,29.53,0,0,1-3.79,4.35,30.16,30.16,0,0,1-5.65,4.23l-.29.17L402,183a28.93,28.93,0,0,1-.3-12.25l.1.21-6-3-1.64-.84A2.55,2.55,0,0,1,393.61,166.77Z"
            style="fill:#263238">
        </path>
        <g style="opacity:0.30000000000000004">
            <path
                d="M405.79,181.24l-5.58,5.07a2.24,2.24,0,0,1-1.35.73,1.49,1.49,0,0,1-1.33-1,4.43,4.43,0,0,1-.15-1.78c.15-2.77.29-5.54.44-8.3a8.09,8.09,0,0,0-.15-2.6c-.77-2.73-4.12-4-5.25-6.56a71.27,71.27,0,0,1,7.74,2.89,3.19,3.19,0,0,1,1.48,1,3.64,3.64,0,0,1,.05,2.81A18.77,18.77,0,0,0,402,183l2.76-2.11">
            </path>
        </g>
        <g style="opacity:0.1">
            <path
                d="M365.21,173.76c6.25-7,13.75-12.81,21.21-18.54a48.4,48.4,0,0,1,8.34-5.52,16.19,16.19,0,0,1,9.71-1.68l.85.1a19.56,19.56,0,0,1,8.9,3.31c3,2.1,13,6.32,15.67,8.86-4.76-2.37-16.77-6.24-21.85-7.82a16.59,16.59,0,0,0,.35,7.64,21.67,21.67,0,0,0-6.62-6.45,2.4,2.4,0,0,0-1.85-.49,1.73,1.73,0,0,0-1.05,1.86,5.67,5.67,0,0,0,.87,2.12,40.8,40.8,0,0,1,5.08,15.31,23,23,0,0,0-16.27-10.58,31.88,31.88,0,0,0-9.45,21,13,13,0,0,1-2.57-7.79,38.67,38.67,0,0,1,.94-8.29A20.76,20.76,0,0,1,365.21,173.76Z"
                style="fill:#fff">
            </path>
        </g>
        <g style="opacity:0.30000000000000004">
            <path
                d="M148.4,192.8a62.85,62.85,0,0,0,11.38,13.79c1.91,1.74,4.21,3.45,6.78,3.26A55.18,55.18,0,0,1,151.21,193c-2-3.31-3.86-6.89-4.12-10.76-.16,3.76-.42,7.2,1.31,10.54">
            </path>
        </g>
        <g style="opacity:0.30000000000000004">
            <path
                d="M214.22,365.48l4.07,5.9c.68-20.25,1.13-39.74,1.82-60A522.8,522.8,0,0,0,214.22,365.48Z">
            </path>
        </g>
        <polygon
            points="193.62 307.25 194.81 261.88 196.27 313.38 193.62 307.25"
            style="opacity:0.30000000000000004">
        </polygon>
        <path
            d="M183.63,294c-.09.19,0-28.06,0-28.06s2.68,16.2,2.79,23.49,0,6,0,6S184.32,292.58,183.63,294Z"
            style="opacity:0.30000000000000004">
        </path>
        <path
            d="M281.11,349.44c.14,0,.26,18.23.26,40.73s-.12,40.73-.26,40.73-.26-18.24-.26-40.73S281,349.44,281.11,349.44Z"
            style="fill:#263238">
        </path>
        <path
            d="M245.61,363.54c.14,0,.26,12.36.26,27.6s-.12,27.6-.26,27.6-.26-12.36-.26-27.6S245.47,363.54,245.61,363.54Z"
            style="fill:#263238">
        </path>
        <path
            d="M294.18,315.78c.15,0,.26,13,.26,29s-.11,28.95-.26,28.95-.26-13-.26-28.95S294,315.78,294.18,315.78Z"
            style="fill:#263238">
        </path>
        <g style="opacity:0.30000000000000004">
            <path
                d="M250,399.64l1.1,9.68a71,71,0,0,0,24.35,43.79C272.41,436.73,253.16,416,250,399.64Z">
            </path>
        </g>
        <path
            d="M297.66,364l-3.48,5V319C294.18,319.49,297.66,364,297.66,364Z"
            style="opacity:0.30000000000000004">
        </path>
        <path
            d="M323.79,241c.14,0,.44,11.17.67,24.95s.29,25,.15,25-.45-11.17-.67-24.95S323.64,241,323.79,241Z"
            style="fill:#263238">
        </path>
        <path
            d="M336,260.82a5.56,5.56,0,0,1,.12,1.11c0,.83.08,1.84.13,3,.08,2.56.17,6.1.24,10s.1,7.45.09,10c0,1.28,0,2.32,0,3a4.16,4.16,0,0,1-.09,1.11,5.56,5.56,0,0,1-.12-1.11c0-.83-.07-1.84-.13-3-.08-2.56-.17-6.1-.24-10s-.1-7.44-.09-10c0-1.29,0-2.32,0-3A4.08,4.08,0,0,1,336,260.82Z"
            style="fill:#263238">
        </path>
        <path
            d="M314.23,273.34a8.16,8.16,0,0,1,.21,1.53c.11,1,.22,2.42.33,4.19.21,3.54.33,8.45.16,13.86s-.62,10.31-1,13.83c-.2,1.77-.39,3.19-.54,4.17a10.34,10.34,0,0,1-.28,1.52,7.75,7.75,0,0,1,.08-1.54c.09-1.08.22-2.49.37-4.18.31-3.53.68-8.41.87-13.81s.11-10.3,0-13.84c-.06-1.69-.12-3.1-.16-4.19A9.56,9.56,0,0,1,314.23,273.34Z"
            style="fill:#263238">
        </path>
        <path
            d="M363.42,205.43a4.6,4.6,0,0,1,.09,1.17c0,.87,0,1.93.05,3.19,0,2.82.08,6.48.12,10.53s0,7.84,0,10.54c0,1.35-.06,2.44-.11,3.19a4.59,4.59,0,0,1-.12,1.17,5.69,5.69,0,0,1-.08-1.17c0-.86,0-1.93,0-3.19,0-2.81-.08-6.48-.13-10.53s0-7.84,0-10.54c0-1.35.07-2.44.12-3.19A5.92,5.92,0,0,1,363.42,205.43Z"
            style="fill:#263238">
        </path>
        <path
            d="M371.22,220.36a34.53,34.53,0,0,1,.08,6,35.6,35.6,0,0,1-.44,6,34.38,34.38,0,0,1-.08-6A35.93,35.93,0,0,1,371.22,220.36Z"
            style="fill:#263238">
        </path>
        <g style="opacity:0.30000000000000004">
            <path
                d="M324.2,250.22c-.69,11-2.18,24.7-6.35,35.23-1-2.59-2.47-8.21-3.46-10.8.38,13.17-.22,22.38-.72,34.76,4-8.57,8-17,10.94-18.55C324.56,276.1,324.37,265.06,324.2,250.22Z">
            </path>
        </g>
        <path
            d="M257.5,104.62a3.62,3.62,0,0,1,.94.12,21,21,0,0,1,2.5.63,30.89,30.89,0,0,1,7.68,3.62,31.34,31.34,0,0,1,6.41,5.58,22.55,22.55,0,0,1,1.58,2,3.11,3.11,0,0,1,.48.81c-.07,0-.87-1-2.34-2.6a34.88,34.88,0,0,0-13.93-9.1C258.79,105,257.48,104.71,257.5,104.62Z"
            style="fill:#263238">
        </path>
        <g style="opacity:0.1">
            <path
                d="M275,98.44a2.55,2.55,0,0,0-2.07.1,35.31,35.31,0,0,1-11.16,1.78c-2.65,0-5.3-.3-7.94-.07s-7.47.82-6.86,2.54c1.5.59,3.17,0,4.76-.23,3.72-.65,7.51.23,11.25.75s7.79.64,11-1.33a3.57,3.57,0,0,0,1.53-1.57A1.61,1.61,0,0,0,275,98.44Z"
                style="fill:#fff">
            </path>
        </g>
        <path
            d="M264.47,302.1s23.8,7.11,31.45,4.92,12.3-16.16,12.3-16.16-6.2,11.79-14,12.06S264.47,302.1,264.47,302.1Z"
            style="opacity:0.30000000000000004">
        </path>
        <path
            d="M234.74,322.69s23.67,35.84,31.92,35.61a11.43,11.43,0,0,0,10.63-6.89s-2.39,13.89-10.37,12.13S248.31,354.34,234.74,322.69Z"
            style="opacity:0.30000000000000004">
        </path>
        <path
            d="M370.86,233.16s4.74-.54,5.54-.73-2.77-37.57-2.77-37.57Z"
            style="opacity:0.30000000000000004">
        </path>
        <path
            d="M286.54,239.81a3.76,3.76,0,0,1-.72-.13l-2.06-.49c-.89-.21-2-.49-3.21-.89s-2.68-.78-4.21-1.37l-2.41-.88c-.84-.32-1.69-.71-2.58-1.07-1.79-.72-3.63-1.65-5.58-2.59A91.56,91.56,0,0,1,242.94,216c-1.52-1.55-3-3-4.24-4.47-.63-.72-1.27-1.4-1.84-2.1l-1.61-2c-1.05-1.26-1.87-2.5-2.64-3.55s-1.39-2-1.87-2.76l-1.11-1.79a3.94,3.94,0,0,1-.36-.64,4.28,4.28,0,0,1,.45.58l1.19,1.73c.51.76,1.14,1.68,1.94,2.71s1.63,2.25,2.69,3.49l1.63,2c.57.69,1.21,1.36,1.85,2.07,1.26,1.45,2.73,2.88,4.25,4.41A95.28,95.28,0,0,0,266,232c1.93.95,3.76,1.89,5.53,2.62.88.37,1.72.77,2.55,1.09l2.4.91c1.51.62,2.93,1,4.16,1.44s2.3.74,3.19,1l2,.58A4,4,0,0,1,286.54,239.81Z"
            style="fill:#263238">
        </path>
        <path
            d="M297.93,234c0,.14-7.92-1.58-17.61-3.83s-17.53-4.2-17.5-4.34,7.92,1.57,17.62,3.83S298,233.88,297.93,234Z"
            style="fill:#263238">
        </path>
        <path
            d="M205,385.61s.29,21.84,5.45,29.88,20.45,23.69,20.45,23.69-11.77-22.7-14.37-30.09S205,385.61,205,385.61Z"
            style="fill:#FF725E">
        </path>
        <g style="opacity:0.30000000000000004">
            <path
                d="M286.24,226.07c0,.33-2.32.49-6,.07a58.42,58.42,0,0,1-26.5-10.4c-3-2.18-4.52-3.85-4.32-4.11.47-.63,7.74,4.6,17.88,8.53S286.31,225.29,286.24,226.07Z"
                style="fill:#fff">
            </path>
        </g>
        <g style="opacity:0.30000000000000004">
            <path
                d="M278.73,282.94c0,.33-2.28.79-6,.72a44.81,44.81,0,0,1-6.56-.63,50.6,50.6,0,0,1-15.24-5.22,43.48,43.48,0,0,1-5.57-3.52c-3-2.24-4.54-4-4.33-4.26.49-.62,7.68,5,18.16,8.54S278.73,282.15,278.73,282.94Z"
                style="fill:#fff">
            </path>
        </g>
        <g style="opacity:0.30000000000000004">
            <path
                d="M203.87,178.68c.29.62-5.44,3.84-13.28,5.66s-14.39,1.55-14.41.86,6.26-1.59,13.82-3.39S203.57,178,203.87,178.68Z"
                style="fill:#fff">
            </path>
        </g>
        <g style="opacity:0.30000000000000004">
            <path
                d="M135.29,175.13c-.3.62-7-2-14.4-7s-12.4-10.18-11.94-10.69,6.16,3.69,13.39,8.53S135.62,174.46,135.29,175.13Z"
                style="fill:#fff">
            </path>
        </g>
        <g style="opacity:0.30000000000000004">
            <path
                d="M356.49,177.2c.16.3-1.3,1.48-3.95,2.9a51.11,51.11,0,0,1-22.61,5.69c-3,0-4.85-.34-4.85-.68,0-.76,7.26-1.18,15.85-3.38S356.13,176.53,356.49,177.2Z"
                style="fill:#fff">
            </path>
        </g>
        <g style="opacity:0.30000000000000004">
            <path
                d="M399.61,149.1c.31.69-6.2,4.11-13.47,9.39s-12.6,10.34-13.16,9.82,4.07-6.5,11.64-11.93S399.36,148.47,399.61,149.1Z"
                style="fill:#fff">
            </path>
        </g>
    </g>
</svg>
